<?xml version="1.0" encoding="UTF-8"?>
<!DOCTYPE svg PUBLIC "-//W3C//DTD SVG 1.1//EN" "http://www.w3.org/Graphics/SVG/1.1/DTD/svg11.dtd">
<!-- Creator: CorelDRAW 2021 (64-Bit) -->
<svg xmlns="http://www.w3.org/2000/svg" xml:space="preserve" width="15mm" height="15mm" version="1.1" style="shape-rendering:geometricPrecision; text-rendering:geometricPrecision; image-rendering:optimizeQuality; fill-rule:evenodd; clip-rule:evenodd"
viewBox="0 0 1500000 1500000"
 xmlns:xlink="http://www.w3.org/1999/xlink"
 xmlns:xodm="http://www.corel.com/coreldraw/odm/2003">
 <defs>
  <style type="text/css">
   <![CDATA[
    .fil0 {fill:black}
   ]]>
  </style>
 </defs>
 <g id="Capa_x0020_1">
  <metadata id="CorelCorpID_0Corel-Layer"/>
  <g id="_2507076284096">
   <path class="fil0" d="M235790 717970l-90 71140 76750 -20 190 141880 137090 220 70 -71120 -62790 0 -250 -70700 135790 -300 -120 70860 43970 200 10 70770 75830 260 0 -71040 81420 0 10 140070 -157180 10 -70 139170 77460 50 0 70950 -74760 0c-1910,4550 -760,216340 -760,256270 0,10050 -1010,27710 290,36850l149320 30 80 -70900 -72190 -120 -20 -79950 278300 -30 0 150790 74000 190 110 -68100 76050 10 -60 68020 157470 100 200 -71050 -78800 0c-1720,-5580 -560,-57830 -560,-68100l152180 10 10 139080 189540 50 250 -71060 -112270 10 40 -68330 -76870 -30 10 -227700 113480 0 -30 73860 77580 130 -20 -214190 -77310 60 -260 69090 -189470 20 10 -67130 72400 -10 -10 -138110 118540 0 0 67100 74190 20 -10 -138200 -192700 -20 -10 -71100 -74290 180 120 141970 -81290 0 20 -70640 -149120 -410 30 -71110 -197720 30 -80 71130 124450 0 210 70880 221830 160 30 67070 -70240 50 -180 70930 -73790 50 -460 70910c7680,670 70130,930 74200,-340l0 -70530 70480 0 -20 144030 -71050 0 30 71150 71710 -10 0 -71050 81170 -50 0 151000 -153500 0 -160 71010 -75720 -10 -280 -222050 -74060 40 -10 139100 -278340 -10 40 -71060 203900 50 290 -70980c-16630,-140 -126260,1440 -131990,-690l-10 -67170 206110 -280 -40 -144060 -73950 20 -210 72950 -50370 -40 -40 -211110 -80590 10 -50 -142020 77180 -30 320 -70830c-6840,-830 -73150,-920 -77520,200l-20 70610 -77290 -10 -180 142140 -118860 -70 -80 -71060 44770 -40 60 -70660c-10720,-2100 -63510,1530 -73140,-850l20 -70530 -167720 0 -40 71050 69570 50 250 70740 -160410 230z"/>
   <path class="fil0" d="M67410 1071300l356440 -10 20 361190 -356800 -50 340 -361130zm-70320 432210l497060 10 -80 -503320 -497200 -20 220 503330z"/>
   <path class="fil0" d="M67100 74660l356770 0 -300 361140 -356350 -20 -130 -8060c-890,-106360 120,-215430 -50,-322450l60 -30610zm-70220 432230l497180 -10 80 -503320 -497040 0 -220 503330z"/>
   <path class="fil0" d="M1067450 74640l356840 0 0 361150 -356880 0 40 -361150zm-70220 432020l497230 230 70 -503320 -497180 0 -120 503090z"/>
   <path class="fil0" d="M1227530 718110l-100 -71100 -72740 -40 20 -70660 -230540 -410 -20 -308860 -74030 30 -110 93180 -74100 10 -60 71940 73700 130c1490,6330 580,204330 430,214420l149200 250c1880,7490 -650,56410 660,70920l77200 60 220 -70830 72460 -210 200 71070 77610 100z"/>
   <polygon class="fil0" points="1131700,370690 1359980,370710 1359980,139710 1131750,139730 "/>
   <polygon class="fil0" points="131440,1366950 359560,1367370 359560,1136700 131400,1136390 "/>
   <polygon class="fil0" points="131410,370660 359580,370400 359550,139720 131440,140130 "/>
   <polygon class="fil0" points="566380,575710 640520,575990 640530,503820 706940,503400 707160,432310 640810,432300 640530,214200 768880,213750 769090,142680 566660,142690 "/>
   <path class="fil0" d="M70960 860130l88970 0 -100 70560c4840,1340 69160,970 77620,300l80 -70900 -75660 0c-700,-17530 560,-57850 -430,-71040l-90450 40 10 -55290 -74140 -70 10 24020c20,55320 -940,119190 50,173430l4400 0c19040,0 52230,860 69680,-260l-30 -3100 -10 -67690z"/>
   <polygon class="fil0" points="716410,74350 850030,74660 850020,213590 924040,213800 924140,3530 716420,3580 "/>
   <polygon class="fil0" points="235790,717970 235750,576090 -2960,575920 -3140,646990 161350,647000 161630,717960 "/>
   <polygon class="fil0" points="1301780,646930 1416970,647020 1416960,717950 1494310,717980 1494530,575990 1301820,575910 "/>
   <path class="fil0" d="M781030 1432510c-1520,7140 -1070,61550 -300,71010l77360 -120 -290 -70940 -76770 50z"/>
   <polygon class="fil0" points="1416950,1352510 1494520,1352480 1494490,1281410 1416960,1281390 "/>
   <polygon class="fil0" points="697410,338120 774610,338090 774960,267100 697570,267090 "/>
   <polygon class="fil0" points="566390,74510 640630,74650 641020,3610 566590,3610 "/>
  </g>
 </g>
</svg>
